<?xml version="1.0" standalone="no"?>
<!DOCTYPE svg PUBLIC "-//W3C//DTD SVG 20010904//EN"
 "http://www.w3.org/TR/2001/REC-SVG-20010904/DTD/svg10.dtd">
<svg version="1.0" xmlns="http://www.w3.org/2000/svg"
 width="400.000000pt" height="283.000000pt" viewBox="0 0 400.000000 283.000000"
 preserveAspectRatio="xMidYMid meet">
<metadata>
Created by potrace 1.13, written by Peter Selinger 2001-2015
</metadata>
<g transform="translate(0.000000,283.000000) scale(0.100000,-0.100000)"
fill="#000000" stroke="none">
<path d="M1004 2127 c-545 -386 -991 -706 -991 -712 0 -5 447 -326 994 -713
l993 -703 443 313 c243 173 693 491 999 708 307 217 554 397 550 401 -13 12
-1991 1409 -1994 1409 -2 -1 -449 -317 -994 -703z m1838 -118 c452 -320 826
-585 830 -588 4 -4 -34 -36 -85 -72 -50 -36 -424 -301 -830 -588 -406 -287
-744 -524 -750 -527 -11 -4 -1675 1165 -1680 1180 -4 10 1668 1186 1679 1182
7 -3 383 -267 836 -587z"/>
<path d="M1170 1909 c-349 -248 -646 -459 -659 -471 l-24 -20 24 -23 c39 -38
1298 -925 1313 -925 9 0 15 18 19 56 11 108 65 164 157 164 92 0 146 -56 157
-164 4 -38 10 -56 19 -56 23 0 1329 930 1329 945 0 16 -1306 945 -1328 945
-10 0 -16 -17 -20 -54 -11 -110 -65 -166 -159 -166 -90 0 -144 57 -155 164 -4
43 -10 56 -22 55 -9 0 -302 -203 -651 -450z m1119 -10 c429 -73 712 -306 657
-541 -18 -78 -55 -137 -127 -202 -171 -155 -480 -248 -819 -248 -735 0 -1192
424 -822 763 36 33 101 77 151 103 270 139 613 184 960 125z"/>
<path d="M1395 1631 l-30 -6 0 -215 0 -215 34 -3 c19 -2 44 -1 57 2 22 6 24
12 24 65 0 32 3 73 6 90 6 30 8 31 60 31 61 0 58 7 58 -115 l1 -70 45 0 c86 1
81 -13 78 227 l-3 213 -60 0 -60 0 -3 -77 c-3 -75 -3 -77 -31 -83 -16 -3 -40
-3 -54 1 -28 6 -34 25 -39 114 -3 40 -6 45 -28 47 -14 0 -38 -2 -55 -6z"/>
<path d="M1875 1631 l-30 -6 3 -210 c2 -116 7 -214 11 -218 5 -4 30 -4 57 0
l49 8 0 102 c0 56 2 99 5 96 3 -2 28 -50 55 -106 l50 -102 53 1 c30 1 58 6 64
12 7 7 -10 47 -52 126 l-61 116 56 86 c30 47 53 89 50 95 -4 5 -28 9 -55 9
-60 0 -73 -12 -120 -110 -19 -38 -36 -70 -39 -70 -3 0 -6 39 -6 88 l0 87 -30
2 c-16 0 -43 -2 -60 -6z"/>
<path d="M2299 1630 c-14 -8 -15 -35 -11 -217 2 -114 8 -212 13 -217 5 -5 21
-5 41 0 l33 10 5 118 5 119 85 -124 c85 -124 86 -124 125 -124 l40 0 0 220 0
220 -34 3 c-18 2 -37 0 -41 -5 -5 -4 -10 -54 -12 -110 -2 -57 -5 -103 -8 -103
-3 1 -34 44 -70 98 -35 53 -71 103 -79 110 -17 14 -69 16 -92 2z"/>
</g>
</svg>
